HIERARCHY
ROOT Hips
{
	OFFSET -0.179506 -22.333345 2.821913
	CHANNELS 6 Xposition Yposition Zposition Zrotation Yrotation Xrotation 
	JOINT LeftUpLeg
	{
		OFFSET 6.951974 -9.140623 -0.681533
		CHANNELS 3 Zrotation Yrotation Xrotation
		JOINT LeftLeg
		{
			OFFSET 3.427654 -37.519855 -0.449580
			CHANNELS 3 Zrotation Yrotation Xrotation
			JOINT LeftFoot
			{
				OFFSET -1.359570 -39.796059 -4.369333
				CHANNELS 3 Zrotation Yrotation Xrotation
				JOINT LeftToe
				{
					OFFSET 2.635814 -5.579078 11.928840
					CHANNELS 3 Zrotation Yrotation Xrotation
					End Site
					{
						OFFSET 0.000000 0.000000 0.000000
					}
				}
			}
		}
	}
	JOINT RightUpLeg
	{
		OFFSET -6.767048 -9.052170 -0.431982
		CHANNELS 3 Zrotation Yrotation Xrotation
		JOINT RightLeg
		{
			OFFSET -3.829005 -38.256897 -0.885003
			CHANNELS 3 Zrotation Yrotation Xrotation
			JOINT RightFoot
			{
				OFFSET 1.577377 -39.841461 -4.231180
				CHANNELS 3 Zrotation Yrotation Xrotation
				JOINT RightToe
				{
					OFFSET -2.537174 -4.814398 12.334795
					CHANNELS 3 Zrotation Yrotation Xrotation
					End Site
					{
						OFFSET 0.000000 0.000000 0.000000
					}
				}
			}
		}
	}
	JOINT Spine
	{
		OFFSET -0.253288 10.896323 -2.669631
		CHANNELS 3 Zrotation Yrotation Xrotation
		JOINT Spine1
		{
			OFFSET 0.548704 13.518043 0.109247
			CHANNELS 3 Zrotation Yrotation Xrotation
			JOINT Spine2
			{
				OFFSET 0.145701 5.292222 2.542457
				CHANNELS 3 Zrotation Yrotation Xrotation
				JOINT Neck
				{
					OFFSET -0.277840 21.387037 -4.285703
					CHANNELS 3 Zrotation Yrotation Xrotation
					JOINT Head
					{
						OFFSET 0.515184 6.496960 5.134897
						CHANNELS 3 Zrotation Yrotation Xrotation
						End Site
						{
							OFFSET 0.000000 0.000000 0.000000
						}
					}
				}
				JOINT LeftShoulder
				{
					OFFSET 7.884473 12.174932 -3.408961
					CHANNELS 3 Zrotation Yrotation Xrotation
					JOINT LeftArm
					{
						OFFSET 9.097692 3.046888 -0.886815
						CHANNELS 3 Zrotation Yrotation Xrotation
						JOINT LeftForeArm
						{
							OFFSET 25.961220 -1.277207 -2.745643
							CHANNELS 3 Zrotation Yrotation Xrotation
							JOINT LeftHand
							{
								OFFSET 24.923361 0.898606 -0.117091
								CHANNELS 3 Zrotation Yrotation Xrotation
								End Site
								{
									OFFSET 0.000000 0.000000 0.000000
								}
							}
						}
					}
				}
				JOINT RightShoulder
				{
					OFFSET -8.175920 11.883285 -3.861528
					CHANNELS 3 Zrotation Yrotation Xrotation
					JOINT RightArm
					{
						OFFSET -9.601238 3.255117 -0.914307
						CHANNELS 3 Zrotation Yrotation Xrotation
						JOINT RightForeArm
						{
							OFFSET -25.374195 -1.332924 -2.140099
							CHANNELS 3 Zrotation Yrotation Xrotation
							JOINT RightHand
							{
								OFFSET -25.529810 0.777228 -0.555919
								CHANNELS 3 Zrotation Yrotation Xrotation
								End Site
								{
									OFFSET 0.000000 0.000000 0.000000
								}
							}
						}
					}
				}
			}
		}
	}
}
MOTION
Frames: 7
Frame Time: 0.033333
-5.387759 -51.529850 88.987236 -122.721910 -1.580988 86.366181 9.998689 10.698099 11.487247 -6.218741 -2.229718 -3.282255 1.508444 13.393554 -12.220566 nan nan nan -17.901126 -12.653251 3.032990 6.636435 -6.654071 -6.175481 9.651019 -5.919904 3.059464 nan nan nan -3.661359 0.550833 -1.974356 3.049590 -5.643521 14.225390 -2.467691 -1.247507 1.772432 3.920592 -17.348705 12.391747 1.719490 -18.960958 4.855763 -15.118556 6.544429 4.998139 -33.267000 4.641697 24.956808 -71.487439 -53.859550 85.660434 22.686995 -34.917588 4.920442 14.460953 1.187186 -2.089686 33.620070 -13.354101 21.612994 79.404366 54.986364 95.267743 -14.073401 27.017219 12.580657 
-5.439049 -51.541344 89.005615 -122.618275 -1.547255 86.318499 10.038174 10.721227 11.501608 -6.214323 -2.327022 -3.205289 1.511905 13.358800 -12.321925 nan nan nan -17.945530 -12.722479 3.141177 6.721447 -6.699646 -6.162751 9.704962 -5.908989 3.017195 nan nan nan -3.658040 0.479811 -1.895471 3.070501 -5.729204 14.178408 -2.507051 -1.257904 1.829333 3.975092 -17.317875 12.300903 1.706353 -19.186563 4.787897 -15.055720 6.631430 5.029183 -33.299027 4.582453 24.892114 -71.459863 -53.897993 85.789320 22.342593 -35.104242 5.037174 14.496065 1.224638 -2.083130 33.748797 -13.442437 21.655794 79.012969 55.173551 95.337196 -14.432631 27.251343 12.483021 
-5.485804 -51.568584 89.024933 -122.579215 -1.558082 86.309180 9.972225 10.702879 11.491320 -6.194623 -2.329673 -3.168854 1.582099 13.436148 -12.336770 nan nan nan -18.028671 -12.711165 3.111230 6.770836 -6.722204 -6.037849 9.720067 -5.924536 2.995092 nan nan nan -3.699895 0.467945 -1.836391 3.071101 -5.755647 14.174754 -2.521654 -1.267433 1.846225 3.901371 -17.428500 12.273110 1.877595 -19.437100 4.678047 -14.995764 6.622568 5.146404 -33.311257 4.565236 24.785078 -71.535484 -53.994374 85.898059 22.174571 -35.203446 5.262724 14.558396 1.182710 -2.079604 33.823557 -13.510335 21.613062 78.867065 55.311702 95.516440 -14.538063 27.310369 12.533329 
-5.504209 -51.604149 89.035011 -122.581422 -1.539201 86.337985 9.943175 10.690995 11.362538 -6.206289 -2.295463 -2.968427 1.619883 13.476455 -12.446646 nan nan nan -18.024415 -12.694242 2.924819 6.739075 -6.714780 -5.757260 9.727311 -5.925858 2.928066 nan nan nan -3.727664 0.432412 -1.749216 3.079065 -5.765458 14.087210 -2.494477 -1.268013 1.914788 3.771229 -17.686211 12.302061 1.992540 -19.712043 4.479848 -14.971804 6.560494 5.260718 -33.328930 4.626486 24.622093 -71.643652 -54.161054 86.106994 21.636466 -35.163912 5.661136 14.601499 1.155385 -2.069353 33.810877 -13.546414 21.421027 78.969235 55.433828 96.038700 -14.118421 27.184216 13.054759 
-5.525397 -51.640362 89.056732 -122.609540 -1.558185 86.342378 9.846602 10.666616 11.330079 -6.147032 -2.260439 -2.910846 1.614981 13.489357 -12.550198 nan nan nan -18.058305 -12.696028 2.730687 6.711727 -6.760529 -5.399168 9.728968 -5.836829 2.777462 nan nan nan -3.782244 0.380622 -1.682325 3.056750 -5.775386 14.092855 -2.463954 -1.274838 1.927658 3.700674 -17.928751 12.358569 2.074803 -19.952461 4.262518 -14.956543 6.502741 5.392094 -33.325315 4.708194 24.462235 -71.761197 -54.347535 86.282723 20.685442 -35.246280 6.007034 14.616713 1.182131 -2.026693 33.848479 -13.581423 21.170748 79.141437 55.603706 96.383788 -13.202594 27.046290 13.454140 
-5.524949 -51.670898 89.080040 -122.648814 -1.553998 86.330797 9.780100 10.669353 11.330067 -6.049167 -2.242654 -2.929851 1.624869 13.517798 -12.536472 nan nan nan -18.053267 -12.689169 2.471554 6.672702 -6.794272 -4.926724 9.735068 -5.782471 2.607060 nan nan nan -3.854902 0.274041 -1.636422 3.052227 -5.797454 14.223618 -2.430916 -1.251298 1.897523 3.636559 -18.243720 12.280824 2.137896 -20.209473 4.305438 -14.947958 6.484926 5.475253 -33.347872 4.752222 24.327916 -71.917075 -54.480120 86.493754 19.881140 -35.072840 6.282285 14.583827 1.276061 -1.918877 33.891070 -13.576323 20.948457 79.406417 55.785660 96.380483 -12.481929 26.727878 13.344875 
-5.502889 -51.700375 89.096756 -122.697650 -1.525008 86.340186 9.748921 10.643408 11.272850 -5.982506 -2.229137 -2.883119 1.643153 13.589396 -12.535919 nan nan nan -18.012894 -12.579772 2.207820 6.645505 -6.828521 -4.544872 9.741883 -5.825697 2.528224 nan nan nan -3.924296 0.130087 -1.586735 3.057028 -5.812923 14.376766 -2.409147 -1.228443 1.851329 3.561567 -18.596484 12.098454 2.174011 -20.423123 4.397032 -14.908533 6.570807 5.493510 -33.400623 4.726799 24.259187 -72.059648 -54.639139 86.788212 18.776579 -34.529678 6.466770 14.532157 1.288475 -1.808607 33.910241 -13.409879 20.900931 79.586813 55.981771 96.404752 -11.772081 26.274481 12.965022 
